<svg width="258" height="149" viewBox="0 0 258 149" fill="none" xmlns="http://www.w3.org/2000/svg">
<g id="Vector">
<path id="Vector 2" d="M19.5785 89.1119C10.9005 95.7706 7.34031 117.134 2 130.729V149H257V36.6746C254.775 36.6746 246.319 23.7734 238.531 29.5997C230.743 35.4261 228.518 103.678 215.168 106.175C201.817 108.672 195.586 39.1717 179.343 41.6687C163.099 44.1656 167.105 108.458 151.974 110.753C136.843 113.047 124.16 -2.44521 110.809 2.1326C97.4581 6.71041 97.0131 58.3154 89.4476 66.2226C81.8822 74.1299 74.9843 54.9861 67.1963 58.7316C59.4084 62.4771 56.2932 103.678 48.2827 105.343C40.2723 107.007 28.2565 82.4532 19.5785 89.1119Z" fill="url(#paint0_linear_181_198)" fill-opacity="0.5"/>
<path id="Vector 3" d="M2 130.729C7.34031 117.134 10.9005 95.7706 19.5785 89.1119C28.2565 82.4532 40.2723 107.007 48.2827 105.343C56.2932 103.678 59.4084 62.4771 67.1963 58.7316C74.9843 54.9861 81.8822 74.1299 89.4476 66.2226C97.0131 58.3154 97.4581 6.71041 110.809 2.1326C124.16 -2.44522 136.843 113.047 151.974 110.753C167.105 108.458 163.099 44.1656 179.343 41.6687C195.586 39.1717 201.817 108.672 215.168 106.175C228.518 103.678 230.743 35.4261 238.531 29.5998C246.319 23.7734 254.775 36.6746 257 36.6746" stroke="#1814F3" stroke-width="3"/>
</g>
<defs>
<linearGradient id="paint0_linear_181_198" x1="129.5" y1="2" x2="129.5" y2="149" gradientUnits="userSpaceOnUse">
<stop stop-color="#2D60FF" stop-opacity="0.5"/>
<stop offset="1" stop-color="#2D60FF" stop-opacity="0"/>
</linearGradient>
</defs>
</svg>
