<svg width="349" height="149" viewBox="0 0 349 149" fill="none" xmlns="http://www.w3.org/2000/svg">
<path d="M25.9206 89.1119C14.1117 95.7706 9.26702 117.134 2 130.729V149H349V36.6746C345.972 36.6746 334.466 23.7734 323.868 29.5997C313.271 35.4261 310.243 103.678 292.075 106.175C273.908 108.672 265.429 39.1717 243.325 41.6687C221.222 44.1656 226.672 108.458 206.082 110.753C185.492 113.047 168.233 -2.44521 150.065 2.1326C131.898 6.71041 131.292 58.3154 120.997 66.2226C110.702 74.1299 101.316 54.9861 90.7182 58.7316C80.1204 62.4771 75.8813 103.678 64.9808 105.343C54.0803 107.007 37.7295 82.4532 25.9206 89.1119Z" fill="url(#paint0_linear_150_78)" fill-opacity="0.5"/>
<path d="M2 130.729C9.26702 117.134 14.1117 95.7706 25.9206 89.1119C37.7295 82.4532 54.0803 107.007 64.9808 105.343C75.8813 103.678 80.1204 62.4771 90.7181 58.7316C101.316 54.9861 110.702 74.1299 120.997 66.2226C131.292 58.3154 131.898 6.71041 150.065 2.1326C168.233 -2.44522 185.492 113.047 206.082 110.753C226.672 108.458 221.222 44.1656 243.325 41.6687C265.429 39.1717 273.907 108.672 292.075 106.175C310.243 103.678 313.27 35.4261 323.868 29.5998C334.466 23.7734 345.972 36.6746 349 36.6746" stroke="#1814F3" stroke-width="3"/>
<defs>
<linearGradient id="paint0_linear_150_78" x1="175.5" y1="2" x2="175.5" y2="149" gradientUnits="userSpaceOnUse">
<stop stop-color="#2D60FF" stop-opacity="0.5"/>
<stop offset="1" stop-color="#2D60FF" stop-opacity="0"/>
</linearGradient>
</defs>
</svg>
